<svg width="301" height="119" viewBox="0 0 301 119" fill="none" xmlns="http://www.w3.org/2000/svg">
<path d="M182.296 14.4H190.528V22.884H182.296V37.584C182.296 38.928 183.052 39.852 184.06 39.852C184.9 39.852 186.328 39.012 187.252 38.004L192.964 44.808C189.772 47.496 186.16 48.924 182.884 48.924C176.92 48.924 172.72 44.556 172.72 38.676V22.884H166.756V14.4H172.72V7.512L182.296 2.892V14.4Z" fill="white"/>
<path d="M209.698 48.924L193.318 14.4H203.902L210.37 29.1L218.35 13.476H219.61L227.422 29.1L233.89 14.4H244.474L228.094 48.924H226.834L218.938 33.132L210.958 48.924H209.698Z" fill="white"/>
<path d="M263.766 48.924C253.602 48.924 246.042 41.28 246.042 31.2C246.042 21.036 253.602 13.476 263.766 13.476C273.846 13.476 281.49 21.036 281.49 31.2C281.49 41.28 273.846 48.924 263.766 48.924ZM255.534 31.116C255.534 36.156 259.062 39.852 263.766 39.852C268.47 39.852 271.914 36.156 271.914 31.116C271.914 26.16 268.47 22.464 263.766 22.464C259.062 22.464 255.534 26.16 255.534 31.116Z" fill="white"/>
<path d="M168.604 101.62C168.604 91.288 176.08 83.476 186.076 83.476C188.68 83.476 191.032 83.98 192.964 84.652V55H202.54V118H192.964V115.732C191.452 116.992 188.344 118.924 183.892 118.924C175.24 118.924 168.604 111.364 168.604 101.62ZM187.168 92.464C182.044 92.464 178.096 96.244 178.096 101.368C178.096 106.156 181.708 109.852 186.664 109.852C189.688 109.852 191.788 108.424 192.964 107.248V93.808C191.2 93.052 189.1 92.464 187.168 92.464Z" fill="white"/>
<path d="M210.803 84.4H220.38V118H210.803V84.4ZM209.544 70.372C209.544 66.844 212.148 64.324 215.592 64.324C219.036 64.324 221.639 66.844 221.639 70.372C221.639 73.816 219.036 76.42 215.592 76.42C212.148 76.42 209.544 73.816 209.544 70.372Z" fill="white"/>
<path d="M244.816 118.924C234.652 118.924 227.092 111.28 227.092 101.2C227.092 91.036 234.652 83.476 244.816 83.476C251.62 83.476 257.332 86.92 260.272 92.212L251.956 97.084C250.612 94.228 247.924 92.464 244.732 92.464C240.112 92.464 236.584 96.16 236.584 101.2C236.584 106.156 240.112 109.852 244.732 109.852C247.924 109.852 250.612 108.088 251.956 105.232L260.272 110.104C257.332 115.396 251.62 118.924 244.816 118.924Z" fill="white"/>
<path d="M264.991 101.116C264.991 91.036 272.467 83.476 282.631 83.476C292.627 83.476 300.019 90.952 300.019 100.864C300.019 101.872 299.935 103.048 299.683 104.056H274.231C275.575 107.752 279.103 110.188 283.723 110.188C287.083 110.188 290.107 108.844 291.451 106.66L299.011 110.944C296.071 115.732 290.191 118.924 283.387 118.924C272.803 118.924 264.991 111.28 264.991 101.116ZM282.547 92.212C278.767 92.212 275.659 94.396 274.483 97.756H290.443C289.351 94.396 286.159 92.212 282.547 92.212Z" fill="white"/>
<path d="M63 32.8242C72.8993 -10.835 135.101 -10.835 145 32.8242V118H63V32.8242Z" fill="#6D6DCF"/>
<path d="M0 32.8242C9.68539 -10.419 71.3146 -10.419 81 32.8242V118H0V32.8242Z" fill="#6D6DCF"/>
<path d="M70 41.0001C70 57.0163 57.0163 70.0001 41 70.0001C24.9837 70.0001 12 57.0163 12 41.0001C12 24.9838 24.9837 12.0001 41 12.0001C57.0163 12.0001 70 24.9838 70 41.0001Z" fill="white"/>
<path d="M63 42.0001C63 47.5229 58.5228 52.0001 53 52.0001C47.4772 52.0001 43 47.5229 43 42.0001C43 36.4772 47.4772 32.0001 53 32.0001C58.5228 32.0001 63 36.4772 63 42.0001Z" fill="#151414"/>
<path d="M119 41.0001C119 49.2843 112.284 56.0001 104 56.0001C95.7157 56.0001 89 49.2843 89 41.0001C89 32.7158 95.7157 26.0001 104 26.0001C112.284 26.0001 119 32.7158 119 41.0001Z" fill="white"/>
<path d="M104 42.0001C104 44.7615 101.761 47.0001 99 47.0001C96.2386 47.0001 94 44.7615 94 42.0001C94 39.2387 96.2386 37.0001 99 37.0001C101.761 37.0001 104 39.2387 104 42.0001Z" fill="#151414"/>
<path d="M47.351 84.4675C53.4573 74.9677 66.3511 84.4675 77.3512 84.4675C88.3512 84.4674 93.3512 73.6819 102.351 79.9677C106.107 82.5908 106.293 86.9429 105.234 91.1241C103.219 99.084 95.7074 103.955 87.9791 106.729L87.3104 106.969C82.7173 108.618 77.8409 109.332 72.968 109.068L67.1054 108.751C53.2572 108.003 39.852 96.1337 47.351 84.4675Z" fill="#151414"/>
<path d="M56.2656 80.2701C58.7755 80.4064 61.5198 81.0997 64.3564 81.8854L63.6747 89.5006C63.6043 90.2856 62.6203 90.5976 62.2275 89.9596L56.2656 80.2701Z" fill="white"/>
<path d="M89.0234 89.9596C88.6306 90.5979 87.6465 90.2857 87.5761 89.5006L86.8876 81.8189C90.2603 80.1005 93.1802 78.1568 96.3749 78.0113L89.0234 89.9596Z" fill="white"/>
</svg>
