<svg width="145" height="118" viewBox="0 0 145 118" fill="none" xmlns="http://www.w3.org/2000/svg">
<path d="M63 32.7444C72.8993 -10.9148 135.101 -10.9148 145 32.7444V117.92H63V32.7444Z" fill="#6D6DCF"/>
<path d="M0 32.7444C9.68539 -10.4989 71.3146 -10.4989 81 32.7444V117.92H0V32.7444Z" fill="#6D6DCF"/>
<path d="M70 40.9202C70 56.9365 57.0163 69.9202 41 69.9202C24.9837 69.9202 12 56.9365 12 40.9202C12 24.904 24.9837 11.9202 41 11.9202C57.0163 11.9202 70 24.904 70 40.9202Z" fill="white"/>
<path d="M63 41.9202C63 47.4431 58.5228 51.9202 53 51.9202C47.4772 51.9202 43 47.4431 43 41.9202C43 36.3974 47.4772 31.9202 53 31.9202C58.5228 31.9202 63 36.3974 63 41.9202Z" fill="#151414"/>
<path d="M119 40.9202C119 49.2045 112.284 55.9202 104 55.9202C95.7157 55.9202 89 49.2045 89 40.9202C89 32.636 95.7157 25.9202 104 25.9202C112.284 25.9202 119 32.636 119 40.9202Z" fill="white"/>
<path d="M104 41.9202C104 44.6817 101.761 46.9202 99 46.9202C96.2386 46.9202 94 44.6817 94 41.9202C94 39.1588 96.2386 36.9202 99 36.9202C101.761 36.9202 104 39.1588 104 41.9202Z" fill="#151414"/>
<path d="M47.351 84.3876C53.4573 74.8879 66.3511 84.3877 77.3512 84.3876C88.3512 84.3876 93.3512 73.6021 102.351 79.8879C106.107 82.511 106.293 86.8631 105.234 91.0443C103.219 99.0042 95.7074 103.875 87.9791 106.649L87.3104 106.889C82.7173 108.538 77.8409 109.252 72.968 108.989L67.1054 108.672C53.2572 107.923 39.852 96.0539 47.351 84.3876Z" fill="#151414"/>
<path d="M56.2656 80.1903C58.7755 80.3265 61.5198 81.0199 64.3564 81.8055L63.6747 89.4208C63.6043 90.2058 62.6203 90.5178 62.2275 89.8797L56.2656 80.1903Z" fill="white"/>
<path d="M89.0234 89.8797C88.6306 90.5181 87.6465 90.2058 87.5761 89.4208L86.8876 81.7391C90.2603 80.0207 93.1802 78.077 96.3749 77.9315L89.0234 89.8797Z" fill="white"/>
</svg>
